<svg xmlns="http://www.w3.org/2000/svg" version="1.1" xmlns:xlink="http://www.w3.org/1999/xlink" xmlns:svgjs="http://svgjs.dev/svgjs" width="1500" height="939" viewBox="0 0 1500 939"><g transform="matrix(1,0,0,1,-0.9090909090909918,115.26483675464328)"><svg viewBox="0 0 396 248" data-background-color="#ffffff" preserveAspectRatio="xMidYMid meet" height="939" width="1500" xmlns="http://www.w3.org/2000/svg" xmlns:xlink="http://www.w3.org/1999/xlink"><g id="tight-bounds" transform="matrix(1,0,0,1,0.2400000000000091,0.4000000000000057)"><svg viewBox="0 0 395.52 247.2" height="247.2" width="395.52"><g><svg></svg></g><g><svg viewBox="0 0 395.52 247.2" height="247.2" width="395.52"><g transform="matrix(1,0,0,1,75.54432,97.54858805872756)"><svg viewBox="0 0 244.43135999999998 52.10282388254486" height="52.10282388254486" width="244.43135999999998"><g><svg viewBox="0 0 244.43135999999998 52.10282388254486" height="52.10282388254486" width="244.43135999999998"><g><svg viewBox="0 0 244.43135999999998 52.10282388254486" height="52.10282388254486" width="244.43135999999998"><g><svg viewBox="0 0 244.43135999999998 52.10282388254486" height="52.10282388254486" width="244.43135999999998"><g id="textblocktransform"><svg viewBox="0 0 244.43135999999998 52.10282388254486" height="52.10282388254486" width="244.43135999999998" id="textblock"><g><svg viewBox="0 0 244.43135999999998 52.10282388254486" height="52.10282388254486" width="244.43135999999998"><g transform="matrix(1,0,0,1,0,0)"><svg width="244.43135999999998" viewBox="0.95 -38.55 183.88000000000002 39.199999999999996" height="52.10282388254486" data-palette-color="#2980b9"><path d="M0.95 0L12.65-34.1 17.85-34.1 29.55 0 25.2 0 22.2-9.1 8.35-9.1 5.3 0 0.95 0ZM9.65-13.1L20.85-13.1 15.35-30.1 15.2-30.1 9.65-13.1ZM34.1 0L34.1-37.45 38.1-37.9 38.1 0 34.1 0ZM45.3 0L45.3-37.45 49.3-37.9 49.3 0 45.3 0ZM59.34-12.45L59.34-12.45Q59.34-7.6 61.52-5.23 63.69-2.85 67.39-2.85L67.39-2.85Q71.04-2.85 73.09-5.2 75.14-7.55 75.14-12.25L75.14-12.25Q75.14-17.25 72.97-19.7 70.79-22.15 67.04-22.15L67.04-22.15Q63.29-22.15 61.32-19.73 59.34-17.3 59.34-12.45ZM55.09-12.5L55.09-12.5Q55.09-16.3 56.29-18.82 57.49-21.35 59.34-22.88 61.19-24.4 63.32-25.03 65.44-25.65 67.34-25.65L67.34-25.65Q69.14-25.65 71.27-25.08 73.39-24.5 75.19-23.03 76.99-21.55 78.19-19.07 79.39-16.6 79.39-12.8L79.39-12.8Q79.39-8.85 78.17-6.25 76.94-3.65 75.09-2.13 73.24-0.6 71.09 0.03 68.94 0.65 67.09 0.65L67.09 0.65Q65.19 0.65 63.09 0.05 60.99-0.55 59.22-2.02 57.44-3.5 56.27-6.05 55.09-8.6 55.09-12.5ZM97.44 0L97.44-34.1 101.64-34.1 101.64-18.35 115.94-34.1 121.19-34.1 108.09-19.8 123.19 0 117.94 0 105.19-16.7 101.64-12.8 101.64 0 97.44 0ZM126.44 0L126.44-25.2 130.44-25.65 130.44 0 126.44 0ZM125.79-32.35L125.79-32.35Q125.79-33.5 126.56-34.27 127.34-35.05 128.49-35.05L128.49-35.05Q129.69-35.05 130.51-34.27 131.34-33.5 131.34-32.35L131.34-32.35Q131.34-31.2 130.51-30.43 129.69-29.65 128.49-29.65L128.49-29.65Q127.34-29.65 126.56-30.43 125.79-31.2 125.79-32.35ZM137.68 0L137.68-20.15Q137.73-21.2 137.43-24.7L137.43-24.7 141.13-25.2 141.68-22Q143.18-23 144.66-23.75 146.13-24.5 147.68-25.08 149.23-25.65 150.68-25.65L150.68-25.65Q152.73-25.65 154.11-25.18 155.48-24.7 156.33-23.6 157.18-22.5 157.56-20.7 157.93-18.9 157.93-16.2L157.93-16.2 157.93 0 153.93 0 153.93-15.75Q153.93-17.25 153.88-18.43 153.83-19.6 153.46-20.43 153.08-21.25 152.31-21.7 151.53-22.15 150.13-22.15L150.13-22.15Q148.83-22.15 147.38-21.58 145.93-21 144.53-20.25 143.13-19.5 141.68-18.5L141.68-18.5 141.68 0 137.68 0ZM182.83-3.95L183.58-0.6Q182.43-0.25 181.2 0 179.98 0.25 178.5 0.45 177.03 0.65 175.43 0.65L175.43 0.65Q172.93 0.65 170.78-0.05 168.63-0.75 167.03-2.3 165.43-3.85 164.5-6.33 163.58-8.8 163.58-12.4L163.58-12.4Q163.58-15.65 164.48-18.13 165.38-20.6 166.95-22.28 168.53-23.95 170.66-24.8 172.78-25.65 175.28-25.65L175.28-25.65Q177.73-25.65 179.53-24.7 181.33-23.75 182.5-22.13 183.68-20.5 184.25-18.32 184.83-16.15 184.83-13.75L184.83-13.75 184.08-11.55 167.93-11.55Q167.93-10 168.33-8.45 168.73-6.9 169.7-5.65 170.68-4.4 172.25-3.63 173.83-2.85 176.18-2.85L176.18-2.85Q177.68-2.85 178.93-3.03 180.18-3.2 181.1-3.43 182.03-3.65 182.83-3.95L182.83-3.95ZM168.08-14.75L180.68-14.75Q180.68-15.1 180.53-16.3 180.38-17.5 179.83-18.8 179.28-20.1 178.13-21.13 176.98-22.15 175.08-22.15L175.08-22.15Q172.98-22.15 171.63-21.28 170.28-20.4 169.48-19.2 168.68-18 168.38-16.75 168.08-15.5 168.08-14.75L168.08-14.75ZM169.63-32.3L178.23-38.55 180.83-35.5 171.33-30.05 169.63-32.3Z" opacity="1" transform="matrix(1,0,0,1,0,0)" fill="#2980b9" class="wordmark-text-0" data-fill-palette-color="primary" id="text-0"></path></svg></g></svg></g></svg></g></svg></g><g></g></svg></g></svg></g></svg></g><g><path d="M81.718 85.248A122.216 122.216 0 0 1 313.802 85.248L309.104 85.248A117.517 117.517 0 0 0 86.416 85.248L81.718 85.248M81.718 161.952A122.216 122.216 0 0 0 313.802 161.952L309.104 161.952A117.517 117.517 0 0 1 86.416 161.952L81.718 161.952" fill="#2980b9" stroke="transparent" data-fill-palette-color="tertiary"></path></g></svg></g><defs></defs></svg><rect width="395.52" height="247.2" fill="none" stroke="none" visibility="hidden"></rect></g></svg></g></svg>